<svg xmlns="http://www.w3.org/2000/svg" viewBox="0 0 1280 720"><defs><linearGradient id="sky" x2="0" y2="1"><stop stop-color="#8ed6ff"/><stop offset="1" stop-color="#eaf8ff"/></linearGradient><linearGradient id="grass" x2="0" y2="1"><stop stop-color="#7bc96f"/><stop offset="1" stop-color="#3f8f4f"/></linearGradient></defs><rect width="1280" height="720" fill="url(#sky)"/><circle cx="1090" cy="105" r="62" fill="#ffe78a"/><path d="M0 430 Q260 335 520 430 T1040 420 T1280 430 V720 H0Z" fill="url(#grass)"/><path d="M495 720 L590 402 H690 L785 720Z" fill="#dcc69a"/><path d="M515 720 L600 420 H680 L765 720" fill="none" stroke="#b49b70" stroke-width="8" stroke-dasharray="22 18"/><g fill="#d9c39c" stroke="#85663e" stroke-width="8"><rect x="300" y="245" width="92" height="330" rx="12"/><rect x="888" y="245" width="92" height="330" rx="12"/></g><g fill="#f4cf5f" stroke="#8b6720" stroke-width="8"><path d="M322 245 L346 190 L370 245Z"/><path d="M910 245 L934 190 L958 245Z"/></g><g stroke="#173f73" stroke-width="14" fill="none"><path d="M392 315 Q640 120 888 315"/><path d="M392 315 V575 M888 315 V575"/><path d="M420 300 V565 M470 255 V565 M520 220 V565 M570 195 V565 M620 180 V565 M670 188 V565 M720 205 V565 M770 235 V565 M820 275 V565 M860 315 V565"/></g><rect x="474" y="205" width="332" height="78" rx="22" fill="#123f78" stroke="#f6c744" stroke-width="8"/><text x="640" y="257" text-anchor="middle" font-family="Arial" font-size="38" font-weight="700" fill="white">FRITZ ACADEMY</text><g fill="#4b9f56"><circle cx="210" cy="420" r="72"/><circle cx="1070" cy="420" r="72"/><circle cx="125" cy="500" r="56"/><circle cx="1155" cy="500" r="56"/></g><g fill="#f4d04f"><circle cx="155" cy="585" r="12"/><circle cx="210" cy="610" r="12"/><circle cx="1045" cy="595" r="12"/><circle cx="1110" cy="610" r="12"/></g></svg>