<svg xmlns="http://www.w3.org/2000/svg" viewBox="0 0 1280 720"><rect width="1280" height="720" fill="#b9e8ff"/><path d="M0 390 Q250 320 520 405 T1030 395 T1280 420 V720 H0Z" fill="#73bd63"/><path d="M500 720 Q520 550 640 430 Q760 550 780 720Z" fill="#d8c29b"/><ellipse cx="640" cy="535" rx="165" ry="54" fill="#82c9e9" stroke="#4f91b1" stroke-width="8"/><g fill="#4b9e53"><circle cx="180" cy="405" r="75"/><circle cx="1085" cy="420" r="78"/><circle cx="300" cy="470" r="55"/><circle cx="980" cy="485" r="55"/></g><g stroke="#80552e" stroke-width="12" fill="none"><path d="M210 500 V620 M1070 500 V620"/></g><g fill="#f3ca55" stroke="#875f20" stroke-width="7"><rect x="94" y="535" width="190" height="65" rx="12"/><rect x="996" y="540" width="190" height="65" rx="12"/></g><text x="189" y="578" text-anchor="middle" font-family="Arial" font-size="25" font-weight="700" fill="#16345d">WELCOME</text><text x="1091" y="583" text-anchor="middle" font-family="Arial" font-size="25" font-weight="700" fill="#16345d">GARDEN</text><g fill="#ffcf54"><circle cx="365" cy="585" r="13"/><circle cx="410" cy="620" r="13"/><circle cx="860" cy="600" r="13"/><circle cx="910" cy="570" r="13"/></g><g fill="#f27ca8"><circle cx="335" cy="625" r="11"/><circle cx="450" cy="575" r="11"/><circle cx="835" cy="635" r="11"/><circle cx="945" cy="615" r="11"/></g><g fill="#fff"><ellipse cx="245" cy="110" rx="82" ry="28"/><ellipse cx="1010" cy="135" rx="95" ry="30"/></g></svg>