<svg xmlns="http://www.w3.org/2000/svg" viewBox="0 0 1200 680"><rect width="1200" height="680" rx="36" fill="#fffaf0"/><text x="600" y="62" text-anchor="middle" font-family="Arial" font-size="42" font-weight="700" fill="#102342">How do you feel today?</text><g font-family="Arial" font-weight="700" fill="#102342" text-anchor="middle"><g transform="translate(190 210)"><circle r="92" fill="#ffd45c" stroke="#174ea6" stroke-width="8"/><circle cx="-32" cy="-18" r="10" fill="#174ea6"/><circle cx="32" cy="-18" r="10" fill="#174ea6"/><path d="M-48 30 Q0 72 48 30" fill="none" stroke="#174ea6" stroke-width="10" stroke-linecap="round"/><text y="132" font-size="30">HAPPY</text></g><g transform="translate(600 210)"><circle r="92" fill="#cfe8ff" stroke="#174ea6" stroke-width="8"/><path d="M-48 -20 h30 M18 -20 h30" stroke="#174ea6" stroke-width="9" stroke-linecap="round"/><path d="M-42 42 Q0 12 42 42" fill="none" stroke="#174ea6" stroke-width="10" stroke-linecap="round"/><text y="132" font-size="30">TIRED</text></g><g transform="translate(1010 210)"><circle r="92" fill="#ffd45c" stroke="#174ea6" stroke-width="8"/><circle cx="-32" cy="-18" r="13" fill="#174ea6"/><circle cx="32" cy="-18" r="13" fill="#174ea6"/><ellipse cy="38" rx="32" ry="39" fill="#ffffff" stroke="#174ea6" stroke-width="9"/><text y="132" font-size="30">EXCITED</text></g><g transform="translate(190 500)"><circle r="92" fill="#b9d5f4" stroke="#174ea6" stroke-width="8"/><circle cx="-32" cy="-18" r="10" fill="#174ea6"/><circle cx="32" cy="-18" r="10" fill="#174ea6"/><path d="M-48 50 Q0 10 48 50" fill="none" stroke="#174ea6" stroke-width="10" stroke-linecap="round"/><path d="M58 -4 q22 30 0 58 q-22 -28 0 -58" fill="#5aa8e8"/><text y="132" font-size="30">SAD</text></g><g transform="translate(600 500)"><circle r="92" fill="#ffb19c" stroke="#174ea6" stroke-width="8"/><path d="M-52 -34 l38 16 M52 -34 l-38 16" stroke="#174ea6" stroke-width="10" stroke-linecap="round"/><circle cx="-32" cy="-10" r="9" fill="#174ea6"/><circle cx="32" cy="-10" r="9" fill="#174ea6"/><path d="M-44 48 Q0 18 44 48" fill="none" stroke="#174ea6" stroke-width="10" stroke-linecap="round"/><text y="132" font-size="30">ANGRY</text></g><g transform="translate(1010 500)"><circle r="92" fill="#e8d7ff" stroke="#174ea6" stroke-width="8"/><circle cx="-32" cy="-18" r="10" fill="#174ea6"/><circle cx="32" cy="-18" r="10" fill="#174ea6"/><path d="M-40 42 Q0 22 40 42" fill="none" stroke="#174ea6" stroke-width="10" stroke-linecap="round"/><path d="M-80 -65 q-18 24 0 46 q18 -22 0 -46 M80 -65 q-18 24 0 46 q18 -22 0 -46" fill="#5aa8e8"/><text y="132" font-size="30">NERVOUS</text></g></g></svg>